<svg width="60" height="60" viewBox="0 0 60 60" fill="none" xmlns="http://www.w3.org/2000/svg">
<g id="Group 5">
<path id="Vector" d="M41.1627 32.093H18.8372C17.693 32.093 16.7441 31.1442 16.7441 30C16.7441 28.8558 17.693 27.907 18.8372 27.907H41.1627C42.3069 27.907 43.2558 28.8558 43.2558 30C43.2558 31.1442 42.3069 32.093 41.1627 32.093Z" fill="black"/>
<g id="Group 4">
<path id="Vector_2" d="M30 60C13.4512 60 0 46.5488 0 30C0 13.4512 13.4512 0 30 0C46.5488 0 60 13.4512 60 30C60 46.5488 46.5488 60 30 60ZM30 4.18605C15.7674 4.18605 4.18605 15.7674 4.18605 30C4.18605 44.2326 15.7674 55.814 30 55.814C44.2326 55.814 55.814 44.2326 55.814 30C55.814 15.7674 44.2326 4.18605 30 4.18605Z" fill="black"/>
<path id="Vector_3" d="M30 43.2558C28.8558 43.2558 27.907 42.307 27.907 41.1628V18.8372C27.907 17.693 28.8558 16.7442 30 16.7442C31.1442 16.7442 32.093 17.693 32.093 18.8372V41.1628C32.093 42.307 31.1442 43.2558 30 43.2558Z" fill="black"/>
</g>
</g>
</svg>
