<svg width="75" height="75" viewBox="0 0 75 75" fill="none" xmlns="http://www.w3.org/2000/svg">
<g id="Iconsax/Linear/camera">
<path id="Vector" d="M32.8125 25H42.1875M21.125 68.75H53.875C62.5 68.75 65.9375 63.4687 66.3438 57.0312L67.9688 31.2187C68.0701 29.6182 67.842 28.0139 67.2987 26.505C66.7554 24.9961 65.9085 23.6147 64.8101 22.4461C63.7118 21.2775 62.3855 20.3465 60.9132 19.7108C59.4408 19.0751 57.8538 18.7481 56.25 18.75C54.3438 18.75 52.5938 17.6563 51.7188 15.9688L49.4688 11.4375C48.0313 8.59375 44.2813 6.25 41.0938 6.25H33.9375C30.7188 6.25 26.9688 8.59375 25.5313 11.4375L23.2813 15.9688C22.4063 17.6563 20.6563 18.75 18.75 18.75C11.9688 18.75 6.59379 24.4687 7.03129 31.2187L8.65629 57.0312C9.03129 63.4687 12.5 68.75 21.125 68.75Z" stroke="white" stroke-width="3" stroke-linecap="round" stroke-linejoin="round"/>
<path id="Vector_2" d="M37.5 56.25C43.0937 56.25 47.6562 51.6875 47.6562 46.0938C47.6562 40.5 43.0937 35.9375 37.5 35.9375C31.9063 35.9375 27.3438 40.5 27.3438 46.0938C27.3438 51.6875 31.9063 56.25 37.5 56.25Z" stroke="white" stroke-width="1.5" stroke-linecap="round" stroke-linejoin="round"/>
</g>
</svg>
