<svg width="45" height="45" viewBox="0 0 45 45" fill="none" xmlns="http://www.w3.org/2000/svg">
<g id="Group 36">
<path id="Vector" d="M22.4059 36.0938C21.5517 36.0938 20.8434 35.3854 20.8434 34.5313V28.2813C20.8434 27.4271 21.5517 26.7188 22.4059 26.7188C23.2601 26.7188 23.9684 27.4271 23.9684 28.2813V34.5313C23.9684 35.3854 23.2601 36.0938 22.4059 36.0938Z" fill="black"/>
<path id="Vector_2" d="M34.0726 45H10.7393C6.94759 45 3.48926 42.0192 2.86426 38.208L0.0934236 21.2385C-0.36491 18.5983 0.905924 15.2129 2.96842 13.5309L17.4059 1.71402C20.1976 -0.585484 24.5934 -0.564193 27.4059 1.73531L41.8434 13.5309C43.8851 15.2129 45.1351 18.5983 44.7184 21.2385L41.9476 38.1867C41.3226 41.9553 37.7809 45 34.0726 45ZM22.3851 3.20443C21.2809 3.20443 20.1768 3.5451 19.3643 4.20514L4.92676 16.0433C3.76009 17.0014 2.92676 19.2158 3.17676 20.7275L5.94759 37.6757C6.32259 39.9113 8.51009 41.8062 10.7393 41.8062H34.0726C36.3018 41.8062 38.4893 39.9113 38.8643 37.6544L41.6351 20.7062C41.8643 19.2158 41.0309 16.9589 39.8851 16.022L25.4476 4.22644C24.6143 3.5451 23.4893 3.20443 22.3851 3.20443Z" fill="black"/>
</g>
</svg>
