<svg width="48" height="45" viewBox="0 0 48 45" fill="none" xmlns="http://www.w3.org/2000/svg">
<g id="Group 54">
<path id="Vector" d="M23.7343 30.7725C19.164 30.7725 15.4548 27.0633 15.4548 22.493C15.4548 17.9228 19.164 14.2136 23.7343 14.2136C28.3045 14.2136 32.0137 17.9228 32.0137 22.493C32.0137 27.0633 28.3045 30.7725 23.7343 30.7725ZM23.7343 17.5254C20.9965 17.5254 18.7666 19.7553 18.7666 22.493C18.7666 25.2308 20.9965 27.4607 23.7343 27.4607C26.472 27.4607 28.7019 25.2308 28.7019 22.493C28.7019 19.7553 26.472 17.5254 23.7343 17.5254Z" fill="#428F6F"/>
<path id="Vector_2" d="M30.8215 44.991C30.3579 44.991 29.8942 44.9248 29.4306 44.8144C28.0617 44.439 26.9136 43.578 26.185 42.3637L25.9201 41.9221C24.6175 39.6701 22.8291 39.6701 21.5265 41.9221L21.2836 42.3416C20.555 43.578 19.407 44.4611 18.0381 44.8144C16.6472 45.1897 15.2121 44.991 13.9977 44.2624L10.2002 42.0766C9.53298 41.6943 8.94764 41.1842 8.4777 40.5755C8.00775 39.9667 7.66243 39.2713 7.46147 38.529C7.26051 37.7867 7.20787 37.012 7.30655 36.2494C7.40523 35.4867 7.65329 34.751 8.03656 34.0842C8.67683 32.9582 8.85346 31.9426 8.47813 31.3024C8.10279 30.6621 7.15342 30.2867 5.85079 30.2867C2.62734 30.2867 0 27.6594 0 24.436V20.5502C0 17.3267 2.62734 14.6994 5.85079 14.6994C7.15342 14.6994 8.10279 14.324 8.47813 13.6838C8.85346 13.0435 8.69891 12.0279 8.03656 10.9019C7.26381 9.55508 7.0651 7.96543 7.46252 6.4641C7.85993 4.94069 8.83138 3.68221 10.2002 2.90947L14.0198 0.723702C16.5147 -0.755555 19.8044 0.105505 21.3057 2.64453L21.5706 3.0861C22.8733 5.3381 24.6616 5.3381 25.9643 3.0861L26.2071 2.66661C27.7085 0.105505 30.9981 -0.755555 33.5151 0.74578L37.3126 2.93155C37.9798 3.31387 38.5652 3.82399 39.0351 4.43273C39.5051 5.04146 39.8504 5.73687 40.0514 6.47918C40.2523 7.2215 40.305 7.99614 40.2063 8.75881C40.1076 9.52149 39.8595 10.2572 39.4763 10.9239C38.836 12.0499 38.6594 13.0656 39.0347 13.7058C39.41 14.3461 40.3594 14.7214 41.662 14.7214C44.8855 14.7214 47.5128 17.3488 47.5128 20.5722V24.458C47.5128 27.6815 44.8855 30.3088 41.662 30.3088C40.3594 30.3088 39.41 30.6842 39.0347 31.3244C38.6594 31.9647 38.8139 32.9803 39.4763 34.1063C40.249 35.4531 40.4698 37.0428 40.0503 38.5441C39.8584 39.2911 39.5168 39.9913 39.0462 40.6023C38.5756 41.2133 37.9858 41.7224 37.3126 42.0987L33.493 44.2845C32.654 44.7481 31.7488 44.991 30.8215 44.991ZM23.7343 36.822C25.6993 36.822 27.5318 38.0584 28.7903 40.2441L29.0332 40.6636C29.2981 41.1273 29.7397 41.4584 30.2696 41.5909C30.7994 41.7234 31.3293 41.6572 31.7709 41.3922L35.5905 39.1844C36.1734 38.8481 36.6001 38.2954 36.7778 37.6464C36.9556 36.9974 36.8701 36.3044 36.5398 35.718C35.2814 33.5544 35.1268 31.3244 36.0983 29.6244C37.0697 27.9244 39.0789 26.9529 41.5958 26.9529C43.0088 26.9529 44.1348 25.8269 44.1348 24.4139V20.5281C44.1348 19.1371 43.0088 17.9891 41.5958 17.9891C39.0789 17.9891 37.0697 17.0176 36.0983 15.3176C35.1268 13.6175 35.2814 11.3876 36.5398 9.22391C36.871 8.64987 36.9593 7.96543 36.7827 7.30308C36.6061 6.64073 36.1866 6.11084 35.6125 5.75759L31.793 3.57182C31.5625 3.43671 31.3077 3.34837 31.0431 3.31186C30.7785 3.27536 30.5093 3.2914 30.2509 3.35908C29.9925 3.42675 29.75 3.54473 29.5372 3.70626C29.3245 3.86779 29.1457 4.06969 29.0111 4.30041L28.7682 4.7199C27.5098 6.90567 25.6772 8.14206 23.7123 8.14206C21.7473 8.14206 19.9148 6.90567 18.6563 4.7199L18.4134 4.27833C18.1391 3.82712 17.6994 3.50081 17.1881 3.36886C16.6768 3.2369 16.1341 3.30972 15.6757 3.57182L11.8561 5.77967C11.2732 6.11591 10.8465 6.66859 10.6688 7.31763C10.491 7.96667 10.5765 8.65964 10.9068 9.24598C12.1652 11.4097 12.3198 13.6396 11.3483 15.3396C10.3769 17.0397 8.36773 18.0111 5.85079 18.0111C4.43777 18.0111 3.31177 19.1371 3.31177 20.5502V24.436C3.31177 25.8269 4.43777 26.975 5.85079 26.975C8.36773 26.975 10.3769 27.9464 11.3483 29.6465C12.3198 31.3465 12.1652 33.5764 10.9068 35.7401C10.5756 36.3142 10.4873 36.9986 10.6639 37.661C10.8405 38.3233 11.26 38.8532 11.8341 39.2064L15.6536 41.3922C16.1173 41.6792 16.6692 41.7455 17.177 41.613C17.7069 41.4805 18.1485 41.1273 18.4355 40.6636L18.6784 40.2441C19.9368 38.0804 21.7694 36.822 23.7343 36.822Z" fill="#428F6F"/>
</g>
</svg>
