<svg width="76" height="75" viewBox="0 0 76 75" fill="none" xmlns="http://www.w3.org/2000/svg">
<g id="Iconsax/Linear/user">
<path id="Vector" d="M64.8438 68.75C64.8438 56.6563 52.8125 46.875 38 46.875C23.1875 46.875 11.1562 56.6563 11.1562 68.75M38 37.5C42.144 37.5 46.1183 35.8538 49.0485 32.9235C51.9788 29.9933 53.625 26.019 53.625 21.875C53.625 17.731 51.9788 13.7567 49.0485 10.8265C46.1183 7.8962 42.144 6.25 38 6.25C33.856 6.25 29.8817 7.8962 26.9515 10.8265C24.0212 13.7567 22.375 17.731 22.375 21.875C22.375 26.019 24.0212 29.9933 26.9515 32.9235C29.8817 35.8538 33.856 37.5 38 37.5Z" stroke="#696969" stroke-width="5" stroke-linecap="round" stroke-linejoin="round"/>
</g>
</svg>
